REM DIRINDEX 1\2,1\4,1\5,1\6,1\7,1\3\8,1\3\9,1\3\10
REM DIRNAME folder01,folder02,folder03,folder04,folder05,folder06,folder07,folder08,folder09,folder10
TITLE ""
FILE "DB4500_5th_5C_14.mp3" MP3
  TRACK 01 AUDIO
    TITLE "0:"
    INDEX 01 00:00:00
  TRACK 02 AUDIO
    TITLE "8:cjc113_3882"
    INDEX 01 00:00:05
  TRACK 03 AUDIO
    TITLE "0:"
    INDEX 01 00:01:26
  TRACK 04 AUDIO
    TITLE "9:cjc113_3883"
    INDEX 01 00:01:34
  TRACK 05 AUDIO
    TITLE "0:"
    INDEX 01 00:03:29
  TRACK 06 AUDIO
    TITLE "10:cjc113_3884"
    INDEX 01 00:03:41
  TRACK 07 AUDIO
    TITLE "0:"
    INDEX 01 00:06:12
  TRACK 08 AUDIO
    TITLE "8:cjc113_3885"
    INDEX 01 00:06:41
  TRACK 09 AUDIO
    TITLE "0:"
    INDEX 01 00:07:54
  TRACK 10 AUDIO
    TITLE "9:cjc113_3886"
    INDEX 01 00:07:62
  TRACK 11 AUDIO
    TITLE "0:"
    INDEX 01 00:09:20
  TRACK 12 AUDIO
    TITLE "10:cjc113_3887"
    INDEX 01 00:09:32
  TRACK 13 AUDIO
    TITLE "0:"
    INDEX 01 00:12:16
  TRACK 14 AUDIO
    TITLE "8:cjc113_3888"
    INDEX 01 00:12:48
  TRACK 15 AUDIO
    TITLE "0:"
    INDEX 01 00:13:59
  TRACK 16 AUDIO
    TITLE "9:cjc113_3889"
    INDEX 01 00:13:69
  TRACK 17 AUDIO
    TITLE "0:"
    INDEX 01 00:15:32
  TRACK 18 AUDIO
    TITLE "10:cjc113_3890"
    INDEX 01 00:15:40
  TRACK 19 AUDIO
    TITLE "0:"
    INDEX 01 00:18:42
  TRACK 20 AUDIO
    TITLE "8:cjc113_3891"
    INDEX 01 00:18:72
  TRACK 21 AUDIO
    TITLE "0:"
    INDEX 01 00:20:26
  TRACK 22 AUDIO
    TITLE "9:cjc113_3892"
    INDEX 01 00:20:36
  TRACK 23 AUDIO
    TITLE "0:"
    INDEX 01 00:21:58
  TRACK 24 AUDIO
    TITLE "10:cjc113_3893"
    INDEX 01 00:21:66
  TRACK 25 AUDIO
    TITLE "0:"
    INDEX 01 00:25:15
  TRACK 26 AUDIO
    TITLE "8:cjc113_3894"
    INDEX 01 00:25:46
  TRACK 27 AUDIO
    TITLE "0:"
    INDEX 01 00:27:06
  TRACK 28 AUDIO
    TITLE "9:cjc113_3895"
    INDEX 01 00:27:14
  TRACK 29 AUDIO
    TITLE "0:"
    INDEX 01 00:28:15
  TRACK 30 AUDIO
    TITLE "10:cjc113_3896"
    INDEX 01 00:28:17
  TRACK 31 AUDIO
    TITLE "0:"
    INDEX 01 00:32:27
  TRACK 32 AUDIO
    TITLE "8:cjc113_3897"
    INDEX 01 00:32:62
  TRACK 33 AUDIO
    TITLE "0:"
    INDEX 01 00:34:20
  TRACK 34 AUDIO
    TITLE "9:cjc113_3898"
    INDEX 01 00:34:32
  TRACK 35 AUDIO
    TITLE "0:"
    INDEX 01 00:35:45
  TRACK 36 AUDIO
    TITLE "10:cjc113_3899"
    INDEX 01 00:35:51
  TRACK 37 AUDIO
    TITLE "0:"
    INDEX 01 00:39:39
  TRACK 38 AUDIO
    TITLE "8:cjc113_3900"
    INDEX 01 00:39:70
  TRACK 39 AUDIO
    TITLE "0:"
    INDEX 01 00:41:12
  TRACK 40 AUDIO
    TITLE "9:cjc113_3901"
    INDEX 01 00:41:22
  TRACK 41 AUDIO
    TITLE "0:"
    INDEX 01 00:42:29
  TRACK 42 AUDIO
    TITLE "10:cjc113_3902"
    INDEX 01 00:42:39
  TRACK 43 AUDIO
    TITLE "0:"
    INDEX 01 00:46:19
  TRACK 44 AUDIO
    TITLE "8:cjc113_3903"
    INDEX 01 00:46:51
  TRACK 45 AUDIO
    TITLE "0:"
    INDEX 01 00:47:68
  TRACK 46 AUDIO
    TITLE "9:cjc113_3904"
    INDEX 01 00:48:02
  TRACK 47 AUDIO
    TITLE "0:"
    INDEX 01 00:49:23
  TRACK 48 AUDIO
    TITLE "10:cjc113_3905"
    INDEX 01 00:49:27
  TRACK 49 AUDIO
    TITLE "0:"
    INDEX 01 00:52:47
  TRACK 50 AUDIO
    TITLE "8:cjc113_3906"
    INDEX 01 00:53:02
  TRACK 51 AUDIO
    TITLE "0:"
    INDEX 01 00:54:21
  TRACK 52 AUDIO
    TITLE "9:cjc113_3907"
    INDEX 01 00:54:29
  TRACK 53 AUDIO
    TITLE "0:"
    INDEX 01 00:55:38
  TRACK 54 AUDIO
    TITLE "10:cjc113_3908"
    INDEX 01 00:55:48
  TRACK 55 AUDIO
    TITLE "0:"
    INDEX 01 00:58:60
  TRACK 56 AUDIO
    TITLE "8:cjc113_3909"
    INDEX 01 00:59:20
  TRACK 57 AUDIO
    TITLE "0:"
    INDEX 01 01:00:47
  TRACK 58 AUDIO
    TITLE "9:cjc113_3910"
    INDEX 01 01:00:55
  TRACK 59 AUDIO
    TITLE "0:"
    INDEX 01 01:02:03
  TRACK 60 AUDIO
    TITLE "10:cjc113_3911"
    INDEX 01 01:02:12
  TRACK 61 AUDIO
    TITLE "0:"
    INDEX 01 01:05:38
  TRACK 62 AUDIO
    TITLE "8:cjc113_3912"
    INDEX 01 01:05:71
  TRACK 63 AUDIO
    TITLE "0:"
    INDEX 01 01:07:17
  TRACK 64 AUDIO
    TITLE "9:cjc113_3913"
    INDEX 01 01:07:23
  TRACK 65 AUDIO
    TITLE "0:"
    INDEX 01 01:08:17
  TRACK 66 AUDIO
    TITLE "10:cjc113_3914"
    INDEX 01 01:08:23
  TRACK 67 AUDIO
    TITLE "0:"
    INDEX 01 01:11:45
  TRACK 68 AUDIO
    TITLE "8:cjc113_3915"
    INDEX 01 01:12:01
  TRACK 69 AUDIO
    TITLE "0:"
    INDEX 01 01:13:24
  TRACK 70 AUDIO
    TITLE "9:cjc113_3916"
    INDEX 01 01:13:30
  TRACK 71 AUDIO
    TITLE "0:"
    INDEX 01 01:14:47
  TRACK 72 AUDIO
    TITLE "10:cjc113_3917"
    INDEX 01 01:14:57
  TRACK 73 AUDIO
    TITLE "0:"
    INDEX 01 01:17:71
